<?xml version="1.0" encoding="UTF-8" standalone="no"?>
<svg
   xmlns:dc="http://purl.org/dc/elements/1.1/"
   xmlns:cc="http://creativecommons.org/ns#"
   xmlns:rdf="http://www.w3.org/1999/02/22-rdf-syntax-ns#"
   xmlns:svg="http://www.w3.org/2000/svg"
   xmlns="http://www.w3.org/2000/svg"
   id="svg8"
   version="1.1"
   viewBox="0 0 210 297"
   height="297mm"
   width="210mm">
  <defs
     id="defs2" />
  <metadata
     id="metadata5">
    <rdf:RDF>
      <cc:Work
         rdf:about="">
        <dc:format>image/svg+xml</dc:format>
        <dc:type
           rdf:resource="http://purl.org/dc/dcmitype/StillImage" />
        <dc:title></dc:title>
      </cc:Work>
    </rdf:RDF>
  </metadata>
  <g
     id="layer1">
    <text
       transform="scale(0.95801832,1.0438214)"
       id="text3725"
       y="104.20159"
       x="43.161766"
       style="font-style:normal;font-weight:normal;font-size:37.08364487px;line-height:1.25;font-family:sans-serif;letter-spacing:0px;word-spacing:0px;fill:#008000;fill-opacity:1;stroke:none;stroke-width:0.43457395;"
       xml:space="preserve"><tspan
         style="font-style:italic;font-variant:normal;font-weight:bold;font-stretch:normal;font-size:83.43819427px;font-family:Algerian;-inkscape-font-specification:'Algerian Bold Italic';stroke-width:0.43457395;fill:#008000;"
         y="104.20159"
         x="43.161766"
         id="tspan3723">A</tspan></text>
    <text
       transform="scale(0.96363074,1.0377419)"
       id="text3729"
       y="104.81205"
       x="83.833061"
       style="font-style:normal;font-weight:normal;font-size:37.30089188px;line-height:1.25;font-family:sans-serif;letter-spacing:0px;word-spacing:0px;fill:#008080;fill-opacity:1;stroke:none;stroke-width:0.43711981;"
       xml:space="preserve"><tspan
         style="font-style:normal;font-variant:normal;font-weight:normal;font-stretch:normal;font-size:83.92700958px;font-family:Algerian;-inkscape-font-specification:Algerian;stroke-width:0.43711981;fill:#008080;"
         y="104.81205"
         x="83.833061"
         id="tspan3727">P</tspan></text>
    <text
       transform="scale(0.89382471,1.1187876)"
       id="text3733"
       y="97.895096"
       x="122.94567"
       style="font-style:normal;font-weight:normal;font-size:35.04936218px;line-height:1.25;font-family:sans-serif;letter-spacing:0px;word-spacing:0px;fill:#008000;fill-opacity:1;stroke:none;stroke-width:0.41073468;"
       xml:space="preserve"><tspan
         style="font-style:italic;font-variant:normal;font-weight:bold;font-stretch:normal;font-size:78.8610611px;font-family:Algerian;-inkscape-font-specification:'Algerian Bold Italic';fill:#008000;stroke-width:0.41073468;"
         y="97.895096"
         x="122.94567"
         id="tspan3731">M</tspan></text>
    <path
       transform="scale(0.26458333)"
       id="path3785"
       d="m 184.14286,407.25811 c 10.60714,-0.54973 27.96428,-0.54973 38.57143,0 10.60714,0.54973 1.92857,0.99952 -19.28572,0.99952 -21.21428,0 -29.89286,-0.44979 -19.28571,-0.99952 z"
       style="fill:#ffffff;stroke-width:2.85714293" />
    <path
       transform="scale(0.26458333)"
       id="path3787"
       d="m 198.42857,407.40733 c 2.75,-0.71865 7.25,-0.71865 10,0 2.75,0.71865 0.5,1.30663 -5,1.30663 -5.5,0 -7.75,-0.58798 -5,-1.30663 z"
       style="fill:#ffffff;stroke-width:2.85714293" />
    <path
       transform="scale(0.26458333)"
       id="path3789"
       d=""
       style="fill:#ffffff;stroke-width:2.85714293" />
    <path
       transform="scale(0.26458333)"
       id="path3791"
       d=""
       style="fill:#ffffff;stroke-width:2.85714293" />
    <path
       transform="scale(0.26458333)"
       id="path3793"
       d=""
       style="fill:#ffffff;stroke-width:2.85714293" />
    <path
       transform="scale(0.26458333)"
       id="path3795"
       d="m 266.51492,310.32499 c -4.84035,-8.93675 -8.80063,-17.48501 -8.80063,-18.99614 0,-4.77161 29.89226,-59.41809 30.88056,-56.4532 0.51861,1.55585 -5.14251,14.61137 -12.58027,29.01225 l -13.52321,26.18342 9.1152,16.58053 c 5.02234,9.13564 7.90146,17.33067 6.41209,18.25115 -1.48671,0.91884 -6.6634,-5.64127 -11.50374,-14.57801 z"
       style="fill:#ffffff;stroke-width:2.85714293" />
    <path
       transform="scale(0.26458333)"
       id="path3797"
       d="m 408.60714,310.28222 c 2.0625,-0.82535 4.52679,-0.72384 5.47619,0.22556 0.94941,0.94941 -0.73809,1.62469 -3.75,1.50063 -3.32841,-0.1371 -4.00542,-0.81412 -1.72619,-1.72619 z"
       style="fill:#ffffff;stroke-width:2.85714293" />
  </g>
</svg>
